<?xml version="1.0" encoding="utf-8"?>
<!-- Generator: Adobe Illustrator 23.0.3, SVG Export Plug-In . SVG Version: 6.00 Build 0)  -->
<svg version="1.1" id="Layer_1" xmlns="http://www.w3.org/2000/svg" xmlns:xlink="http://www.w3.org/1999/xlink" x="0px" y="0px"
	 viewBox="0 0 95.08 119.38" style="enable-background:new 0 0 95.08 119.38;" xml:space="preserve">
<style type="text/css">
	.st0{fill:#215BAA;stroke:#215BAA;stroke-width:2.1078;stroke-miterlimit:10;}
</style>
<g>
	<g>
		<path class="st0" d="M67.62,20.63H20.5V0h47.12V20.63z M23.79,17.35h40.54V3.29H23.79V17.35z"/>
	</g>
	<g>
		<polygon class="st0" points="88.11,114.12 0,114.12 0,8.67 22.14,8.67 22.14,11.96 3.29,11.96 3.29,110.84 84.83,110.84 
			84.83,71.89 88.11,71.89 		"/>
	</g>
	<g>
		<polygon class="st0" points="88.11,73 84.83,73 84.83,11.96 65.97,11.96 65.97,8.67 88.11,8.67 		"/>
	</g>
	<g>
		<g>
			<polygon class="st0" points="17.98,49.94 10.4,41.78 12.8,39.54 17.98,45.11 27.28,35.1 29.68,37.34 			"/>
		</g>
		<g>
			<polygon class="st0" points="17.98,73.18 10.4,65.02 12.8,62.78 17.98,68.35 27.28,58.34 29.68,60.58 			"/>
		</g>
		<g>
			<polygon class="st0" points="17.98,96.42 10.4,88.26 12.8,86.03 17.98,91.59 27.28,81.59 29.68,83.82 			"/>
		</g>
	</g>
	<g>
		<rect x="37.07" y="40.83" class="st0" width="37.8" height="3.29"/>
	</g>
	<g>
		<rect x="37.07" y="64.07" class="st0" width="37.8" height="3.29"/>
	</g>
	<g>
		<rect x="37.07" y="87.31" class="st0" width="37.91" height="3.29"/>
	</g>
</g>
</svg>
