<?xml version="1.0" encoding="utf-8"?>
<!-- Generator: Adobe Illustrator 23.0.3, SVG Export Plug-In . SVG Version: 6.00 Build 0)  -->
<svg version="1.1" id="Layer_1" xmlns="http://www.w3.org/2000/svg" xmlns:xlink="http://www.w3.org/1999/xlink" x="0px" y="0px"
	 viewBox="0 0 122.77 119.38" style="enable-background:new 0 0 122.77 119.38;" xml:space="preserve">
<style type="text/css">
	.st0{fill:#215BAA;}
	.st1{fill:none;stroke:#215BAA;stroke-width:5;stroke-miterlimit:10;}
</style>
<g>
	<path class="st0" d="M21.15,52.35c-0.89,0.37-1.47,1.24-1.47,2.2v42.78c0,1.31,1.06,2.38,2.38,2.38h42.78
		c0.96,0,1.83-0.58,2.2-1.47c0.37-0.89,0.16-1.91-0.52-2.59L23.74,52.86C23.06,52.18,22.04,51.98,21.15,52.35z M24.44,60.28
		L59.1,94.95H24.44V60.28z"/>
	<path class="st0" d="M77.63,78.78c-0.99-0.99-2.62-0.92-3.53,0.18c-0.79,0.96-0.62,2.4,0.26,3.28l32.26,32.39H83.39v-2.08
		c0-1.24-0.89-2.38-2.13-2.5c-1.42-0.14-2.62,0.97-2.62,2.37v2.21h-14.9v-2.08c0-1.24-0.89-2.38-2.13-2.5
		c-1.42-0.14-2.62,0.97-2.62,2.37v2.21h-14.9v-2.08c0-1.24-0.89-2.38-2.13-2.5c-1.42-0.14-2.62,0.97-2.62,2.37v2.21h-14.9v-2.08
		c0-1.24-0.89-2.38-2.13-2.5c-1.42-0.14-2.62,0.97-2.62,2.37v2.21H4.76V12.77l30.82,30.77c1.47,1.47,4.37,0.62,4.17-2.55L4.06,5.35
		C3.24,4.53,1.91,4.4,0.93,5.14C0.31,5.61,0,6.38,0,7.15l0,109.86c0,1.31,1.06,2.38,2.38,2.38h109.86c0.77,0,1.54-0.31,2.01-0.93
		c0.74-0.98,0.62-2.31-0.21-3.13L77.63,78.78z"/>
	<g>
		<circle class="st1" cx="64.06" cy="52.35" r="19.95"/>
		<polyline class="st1" points="64.06,39.52 64.06,52.35 72.61,60.9 		"/>
	</g>
</g>
</svg>
