<?xml version="1.0" encoding="utf-8"?>
<!-- Generator: Adobe Illustrator 23.0.3, SVG Export Plug-In . SVG Version: 6.00 Build 0)  -->
<svg version="1.1" id="Layer_1" xmlns="http://www.w3.org/2000/svg" xmlns:xlink="http://www.w3.org/1999/xlink" x="0px" y="0px"
	 viewBox="0 0 147.21 133.26" style="enable-background:new 0 0 147.21 133.26;" xml:space="preserve">
<style type="text/css">
	.st0{fill:#215BAA;}
</style>
<g>
	<polygon class="st0" points="92.87,41.14 82.96,41.14 82.96,51.04 86.85,51.04 86.85,45.03 92.87,45.03 	"/>
	<polygon class="st0" points="57,21.67 60.88,21.67 60.88,15.66 66.9,15.66 66.9,11.77 57,11.77 	"/>
	<polygon class="st0" points="74.65,21.67 78.54,21.67 78.54,15.66 84.56,15.66 84.56,11.77 74.65,11.77 	"/>
	<polygon class="st0" points="110.19,41.14 100.29,41.14 100.29,51.04 104.17,51.04 104.17,45.03 110.19,45.03 	"/>
	<polygon class="st0" points="92.87,58.57 82.96,58.57 82.96,68.48 86.85,68.48 86.85,62.46 92.87,62.46 	"/>
	<polygon class="st0" points="110.19,58.57 100.29,58.57 100.29,68.48 104.17,68.48 104.17,62.46 110.19,62.46 	"/>
	<polygon class="st0" points="82.96,86.13 86.85,86.13 86.85,80.11 92.87,80.11 92.87,76.23 82.96,76.23 	"/>
	<polygon class="st0" points="100.29,86.13 104.17,86.13 104.17,80.11 110.19,80.11 110.19,76.23 100.29,76.23 	"/>
	<path class="st0" d="M93.13,99.59c0.41-1.34,0.91-2.63,1.49-3.89H82.96v20.36h-7.89v-82.8h43.08v45.19
		c1.27-0.16,2.57-0.26,3.89-0.26V31.31c0-1.07-0.87-1.94-1.94-1.94H96.08V1.94c0-1.07-0.87-1.94-1.94-1.94H47.17
		c-0.2,0-0.39,0.04-0.57,0.09c-0.02,0.01-0.04,0.01-0.06,0.02c-0.18,0.06-0.35,0.15-0.51,0.26c0,0-0.01,0-0.01,0.01L33.43,9.64
		c-0.49,0.36-0.79,0.94-0.79,1.56v47.2H20.33c-0.19,0-0.38,0.04-0.55,0.09c-0.03,0.01-0.06,0.02-0.09,0.03
		c-0.17,0.06-0.33,0.14-0.47,0.24c-0.01,0.01-0.02,0.01-0.03,0.02l-12.6,9.27C6.09,68.4,5.8,68.98,5.8,69.6v46.46H0v2.89h82.96
		l10.89,0.4c-0.41-1.07-0.77-2.16-1.07-3.28h-5.94V99.59H93.13z M18.39,92.11v23.95H9.68V70.58l8.71-6.4V92.11z M32.64,116.06H22.28
		V92.11V62.29h10.36V116.06z M45.23,92.11v23.95h-8.7V12.18l8.7-6.4V92.11z M71.19,116.06h-8.7v-74.5l8.7-6.4V116.06z M72.57,29.46
		c-0.02,0.01-0.04,0.01-0.05,0.02c-0.19,0.06-0.36,0.15-0.51,0.26c0,0-0.01,0-0.01,0.01L59.4,39.01c-0.49,0.36-0.79,0.94-0.79,1.56
		v75.49h-9.5V92.11V3.89h43.08v25.48H73.14C72.94,29.37,72.75,29.41,72.57,29.46z"/>
	<path class="st0" d="M122.34,84.16c-12.97,0-23.53,10.56-23.53,23.53c0,12.97,10.56,23.53,23.53,23.53
		c12.97,0,23.53-10.56,23.53-23.53C145.87,94.71,135.31,84.16,122.34,84.16z M122.34,127.22c-10.77,0-19.53-8.76-19.53-19.53
		s8.76-19.53,19.53-19.53s19.53,8.76,19.53,19.53S133.1,127.22,122.34,127.22z"/>
	<path class="st0" d="M123.9,97.85v-3.06h-3.68v3.06c-2.9,0.71-5.04,3.05-5.04,5.83c0,3.01,2.13,6.06,6.88,6.06
		c2,0,3.2,0.89,3.2,2.37c0,1.31-1.43,2.38-3.2,2.38s-3.2-1.07-3.2-2.38v-0.5h-3.68v0.5c0,2.78,2.14,5.12,5.04,5.83v3.06h3.68v-3.06
		c2.9-0.71,5.04-3.05,5.04-5.83c0-3.56-2.83-6.05-6.88-6.05c-1.19,0-3.2-0.31-3.2-2.38c0-1.31,1.43-2.38,3.2-2.38s3.2,1.07,3.2,2.38
		v0.5h3.68v-0.5C128.94,100.9,126.81,98.56,123.9,97.85z"/>
</g>
</svg>
