<?xml version="1.0" encoding="utf-8"?>
<!-- Generator: Adobe Illustrator 23.0.3, SVG Export Plug-In . SVG Version: 6.00 Build 0)  -->
<svg version="1.1" id="Layer_1" xmlns="http://www.w3.org/2000/svg" xmlns:xlink="http://www.w3.org/1999/xlink" x="0px" y="0px"
	 viewBox="0 0 108.9 119.38" style="enable-background:new 0 0 108.9 119.38;" xml:space="preserve">
<style type="text/css">
	.st0{fill:#255CAA;}
</style>
<g>
	<polygon class="st0" points="1,1 1,86.15 18.52,86.15 18.52,81.65 5.5,81.65 5.5,5.5 103.15,5.5 103.15,81.65 90.14,81.65 
		90.14,86.15 107.65,86.15 107.65,1 	"/>
	<rect x="33.15" y="19.82" class="st0" width="43.01" height="4.5"/>
	<rect x="41.21" y="31.57" class="st0" width="26.88" height="4.5"/>
	<path class="st0" d="M80.82,63.27c-5.27,0-9.56-4.29-9.56-9.56c0-1.17-0.95-2.12-2.12-2.12H39.51c-1.17,0-2.12,0.95-2.12,2.12
		c0,5.27-4.29,9.56-9.56,9.56c-1.17,0-2.12,0.95-2.12,2.12c0,0.14-0.04,13.65,0,25.01c0.02,6.93,4.77,13.76,14.12,20.3
		c5.83,4.08,13.39,7.76,14.49,7.76c0,0,0.36,0.02,0.83-0.16c1.13-0.47,27.75-11.73,27.8-27.9c0.04-11.35,0-24.87,0-25.01
		C82.94,64.22,81.99,63.27,80.82,63.27z M78.7,90.38c-0.04,11.98-20.09,21.69-24.38,23.64c-4.1-1.84-24.32-11.56-24.36-23.64
		c-0.03-8.78-0.01-18.86,0-23.03c5.92-0.92,10.61-5.6,11.52-11.52h25.71c0.92,5.92,5.61,10.6,11.52,11.52
		C78.71,71.52,78.73,81.6,78.7,90.38z"/>
	<path class="st0" d="M60.97,97.87c-2.19,1.64-4.66,3.21-7.21,4.59c-1.9-1.02-4.38-2.48-6.81-4.24c-5.96-4.33-7.19-7.31-7.19-7.87
		c-0.01-4.5-0.02-9.85-0.01-15.93c3.37-2.03,6.17-4.84,8.21-8.2h12.83c1.17,0,2.12-0.95,2.12-2.12c0-1.17-0.95-2.12-2.12-2.12H46.72
		c-0.78,0-1.5,0.43-1.87,1.12c-1.88,3.5-4.72,6.35-8.23,8.22c-0.69,0.37-1.12,1.09-1.12,1.87c-0.01,6.59,0,12.37,0.01,17.18
		c0.01,3.06,3.27,7.18,8.95,11.3c3.08,2.24,6.23,4,8.33,5.09c0.31,0.16,0.64,0.24,0.98,0.24c0.34,0,0.67-0.08,0.98-0.24
		c3.09-1.6,6.12-3.5,8.77-5.48c0.94-0.7,1.13-2.03,0.43-2.97C63.24,97.36,61.91,97.17,60.97,97.87z"/>
</g>
</svg>
