<?xml version="1.0" encoding="utf-8"?>
<!-- Generator: Adobe Illustrator 23.0.3, SVG Export Plug-In . SVG Version: 6.00 Build 0)  -->
<svg version="1.1" id="Layer_1" xmlns="http://www.w3.org/2000/svg" xmlns:xlink="http://www.w3.org/1999/xlink" x="0px" y="0px"
	 viewBox="0 0 89.11 115.12" style="enable-background:new 0 0 89.11 115.12;" xml:space="preserve">
<style type="text/css">
	.st0{fill:#215BAA;}
	.st1{fill:none;stroke:#215BAA;stroke-width:4.7505;stroke-miterlimit:10;}
	.st2{fill:none;stroke:#215BAA;stroke-width:4.7505;stroke-miterlimit:10;stroke-dasharray:4.7505,4.7505;}
	.st3{fill:#4E4E4E;}
	.st4{fill:#273133;}
	.st5{fill:#FFFFFF;}
	.st6{fill:none;stroke:#515151;stroke-width:4.4595;stroke-linejoin:round;stroke-miterlimit:10;}
	.st7{fill:none;stroke:#515151;stroke-width:4.4595;stroke-miterlimit:10;}
	.st8{fill:none;stroke:#515151;stroke-width:2;stroke-miterlimit:10;}
	.st9{fill:none;stroke:#515151;stroke-width:6.0547;stroke-miterlimit:10;}
	.st10{fill:#255CAA;}
	.st11{fill:none;stroke:#215BAA;stroke-width:5;stroke-miterlimit:10;}
	.st12{fill:none;stroke:#215BAA;stroke-width:4.4922;stroke-miterlimit:10;}
</style>
<g>
	<path class="st0" d="M68.62,8.67V0H20.5v8.67H0v106.45h89.11V74v-2.11V8.67H68.62z M24.79,17.35V4.29h39.54v13.06H24.79z
		 M84.83,71.89V74v36.83H4.29V12.96H20.5v8.67h48.12v-8.67h16.21V71.89z"/>
	<polygon class="st0" points="18.48,44.87 13.33,39.34 10.19,42.26 18.48,51.17 30.89,37.81 27.75,34.9 	"/>
	<polygon class="st0" points="18.48,68.12 13.33,62.58 10.19,65.5 18.48,74.41 30.89,61.06 27.75,58.14 	"/>
	<polygon class="st0" points="18.48,91.36 13.33,85.82 10.19,88.74 18.48,97.66 30.89,84.3 27.75,81.38 	"/>
	<rect x="37.07" y="40.83" class="st0" width="38.8" height="4.29"/>
	<rect x="37.07" y="64.07" class="st0" width="38.8" height="4.29"/>
	<rect x="37.07" y="87.31" class="st0" width="38.91" height="4.29"/>
</g>
</svg>
