<?xml version="1.0" encoding="utf-8"?>
<!-- Generator: Adobe Illustrator 23.0.3, SVG Export Plug-In . SVG Version: 6.00 Build 0)  -->
<svg version="1.1" id="Layer_1" xmlns="http://www.w3.org/2000/svg" xmlns:xlink="http://www.w3.org/1999/xlink" x="0px" y="0px"
	 viewBox="0 0 114.01 114.01" style="enable-background:new 0 0 114.01 114.01;" xml:space="preserve">
<style type="text/css">
	.st0{fill:#215BAA;}
	.st1{fill:none;stroke:#215BAA;stroke-width:4.7505;stroke-miterlimit:10;}
	.st2{fill:none;stroke:#215BAA;stroke-width:4.7505;stroke-miterlimit:10;stroke-dasharray:4.7505,4.7505;}
	.st3{fill:#4E4E4E;}
	.st4{fill:#273133;}
	.st5{fill:#FFFFFF;}
	.st6{fill:none;stroke:#515151;stroke-width:4.4595;stroke-linejoin:round;stroke-miterlimit:10;}
	.st7{fill:none;stroke:#515151;stroke-width:4.4595;stroke-miterlimit:10;}
	.st8{fill:none;stroke:#515151;stroke-width:2;stroke-miterlimit:10;}
	.st9{fill:none;stroke:#515151;stroke-width:6.0547;stroke-miterlimit:10;}
	.st10{fill:#255CAA;}
	.st11{fill:none;stroke:#215BAA;stroke-width:5;stroke-miterlimit:10;}
	.st12{fill:none;stroke:#215BAA;stroke-width:4.4922;stroke-miterlimit:10;}
</style>
<g>
	<path class="st0" d="M21.7,47.51c-0.27,0-0.53,0.05-0.77,0.15c-0.76,0.31-1.25,1.05-1.25,1.86v42.78c0,1.11,0.91,2.02,2.02,2.02
		h42.78c0.82,0,1.55-0.49,1.86-1.25c0.31-0.76,0.14-1.62-0.44-2.2L23.12,48.1C22.74,47.72,22.24,47.51,21.7,47.51z M23.72,54.4
		l35.9,35.9h-35.9V54.4z"/>
	<path class="st0" d="M113.42,110.57L77.01,74.02c-0.38-0.38-0.89-0.59-1.43-0.59c-0.61,0-1.18,0.27-1.57,0.75
		c-0.65,0.79-0.54,2.02,0.24,2.79l32.87,33H82.67v-2.44c0-1.1-0.79-2.04-1.81-2.14c-0.07-0.01-0.14-0.01-0.21-0.01
		c-1.11,0-2.02,0.91-2.02,2.02v2.57H63.02v-2.44c0-1.1-0.79-2.04-1.81-2.14c-0.07-0.01-0.14-0.01-0.21-0.01
		c-1.11,0-2.02,0.91-2.02,2.02v2.57H43.37v-2.44c0-1.1-0.79-2.04-1.81-2.14c-0.07-0.01-0.14-0.01-0.21-0.01
		c-1.11,0-2.02,0.91-2.02,2.02v2.57H23.72v-2.44c0-1.1-0.79-2.04-1.81-2.14c-0.07-0.01-0.14-0.01-0.21-0.01
		c-1.11,0-2.02,0.91-2.02,2.02v2.57H4.04V6.89l31.44,31.38c0.38,0.38,0.89,0.59,1.43,0.59c0.56,0,1.09-0.23,1.47-0.64
		c0.47-0.5,0.7-1.22,0.67-2.1L3.45,0.59C3.06,0.21,2.56,0,2.02,0C1.57,0,1.15,0.14,0.79,0.42C0.29,0.79,0,1.43,0,2.14v109.86
		c0,1.11,0.91,2.02,2.02,2.02h109.86c0.7,0,1.35-0.29,1.72-0.79C114.21,112.41,114.14,111.29,113.42,110.57z"/>
	<path class="st0" d="M63.7,69.42c12.18,0,22.09-9.91,22.09-22.09S75.88,25.24,63.7,25.24s-22.09,9.91-22.09,22.09
		S51.52,69.42,63.7,69.42z M63.7,29.52c9.82,0,17.81,7.99,17.81,17.81c0,9.82-7.99,17.81-17.81,17.81
		c-9.82,0-17.81-7.99-17.81-17.81C45.89,37.51,53.88,29.52,63.7,29.52z"/>
	<polygon class="st0" points="73.5,54.11 65.84,46.45 65.84,34.87 61.56,34.87 61.56,48.22 70.48,57.14 	"/>
</g>
</svg>
