<?xml version="1.0" encoding="utf-8"?>
<!-- Generator: Adobe Illustrator 23.0.3, SVG Export Plug-In . SVG Version: 6.00 Build 0)  -->
<svg version="1.1" id="Layer_1" xmlns="http://www.w3.org/2000/svg" xmlns:xlink="http://www.w3.org/1999/xlink" x="0px" y="0px"
	 viewBox="0 0 127.58 114.76" style="enable-background:new 0 0 127.58 114.76;" xml:space="preserve">
<style type="text/css">
	.st0{fill:#215BAA;}
	.st1{fill:none;stroke:#215BAA;stroke-width:4.7505;stroke-miterlimit:10;}
	.st2{fill:none;stroke:#215BAA;stroke-width:4.7505;stroke-miterlimit:10;stroke-dasharray:4.7505,4.7505;}
	.st3{fill:#4E4E4E;}
	.st4{fill:#273133;}
	.st5{fill:#FFFFFF;}
	.st6{fill:none;stroke:#515151;stroke-width:4.4595;stroke-linejoin:round;stroke-miterlimit:10;}
	.st7{fill:none;stroke:#515151;stroke-width:4.4595;stroke-miterlimit:10;}
	.st8{fill:none;stroke:#515151;stroke-width:2;stroke-miterlimit:10;}
	.st9{fill:none;stroke:#515151;stroke-width:6.0547;stroke-miterlimit:10;}
	.st10{fill:#255CAA;}
	.st11{fill:none;stroke:#215BAA;stroke-width:5;stroke-miterlimit:10;}
	.st12{fill:none;stroke:#215BAA;stroke-width:4.4922;stroke-miterlimit:10;}
</style>
<g>
	<polygon class="st0" points="81.53,36.01 72.61,36.01 72.61,44.92 76.26,44.92 76.26,39.65 81.53,39.65 	"/>
	<polygon class="st0" points="49.89,19.21 53.53,19.21 53.53,13.95 58.8,13.95 58.8,10.3 49.89,10.3 	"/>
	<polygon class="st0" points="65.34,19.21 68.99,19.21 68.99,13.95 74.25,13.95 74.25,10.3 65.34,10.3 	"/>
	<polygon class="st0" points="96.69,36.01 87.77,36.01 87.77,44.92 91.42,44.92 91.42,39.65 96.69,39.65 	"/>
	<polygon class="st0" points="81.53,51.26 72.61,51.26 72.61,60.18 76.26,60.18 76.26,54.91 81.53,54.91 	"/>
	<polygon class="st0" points="96.69,51.26 87.77,51.26 87.77,60.18 91.42,60.18 91.42,54.91 96.69,54.91 	"/>
	<polygon class="st0" points="72.61,75.63 76.26,75.63 76.26,70.36 81.53,70.36 81.53,66.72 72.61,66.72 	"/>
	<polygon class="st0" points="87.77,75.63 91.42,75.63 91.42,70.36 96.69,70.36 96.69,66.72 87.77,66.72 	"/>
	<path class="st0" d="M83.3,87.41c0.37-1.25,0.83-2.47,1.37-3.65H72.61v17.82h-6.66V29.35h37.46v40.18
		c1.19-0.21,2.42-0.34,3.65-0.39V27.53c0-1.01-0.82-1.82-1.82-1.82h-20.9V1.82c0-1.01-0.82-1.82-1.82-1.82H41.41
		c-0.17,0-0.35,0.03-0.59,0.11c-0.16,0.05-0.3,0.12-0.43,0.21L29.31,8.46c-0.46,0.34-0.74,0.89-0.74,1.46v41.19H17.92
		c-0.16,0-0.33,0.03-0.52,0.08l-0.09,0.03c-0.19,0.07-0.32,0.14-0.37,0.18L5.82,59.58c-0.46,0.34-0.74,0.89-0.74,1.46v40.54H0v2.77
		l72.73,0l11.29,0.38c-0.4-1.02-0.73-2.08-1-3.15h-6.75V87.41H83.3z M16.1,101.58H8.72V61.96l7.38-5.42V101.58z M28.57,101.58h-8.82
		V54.76h8.82V101.58z M39.58,101.58h-7.37V10.85l7.37-5.42V101.58z M62.31,101.58h-7.37V36.55l7.37-5.42V101.58z M63.55,25.81
		c-0.16,0.05-0.3,0.12-0.43,0.21l-11.08,8.15c-0.46,0.34-0.74,0.88-0.74,1.46v65.95h-8.07V3.65h37.46V25.7H64.13
		C63.96,25.7,63.78,25.74,63.55,25.81z"/>
	<path class="st0" d="M107.2,73.98c-11.24,0-20.39,9.15-20.39,20.39c0,11.24,9.15,20.39,20.39,20.39c11.24,0,20.39-9.15,20.39-20.39
		C127.58,83.13,118.44,73.98,107.2,73.98z M107.2,111.67c-9.54,0-17.3-7.76-17.3-17.3s7.76-17.3,17.3-17.3s17.3,7.76,17.3,17.3
		S116.73,111.67,107.2,111.67z"/>
	<path class="st0" d="M108.49,86.06L108.25,86v-2.6h-2.59v2.6l-0.24,0.06c-2.45,0.6-4.17,2.57-4.17,4.8c0,2.48,1.76,4.99,5.71,4.99
		c1.92,0,3.11,0.92,3.11,2.39c0,1.32-1.4,2.39-3.11,2.39c-1.72,0-3.12-1.07-3.12-2.39v-0.12h-2.59v0.12c0,2.22,1.71,4.2,4.17,4.8
		l0.24,0.06v2.6h2.59v-2.6l0.24-0.06c2.46-0.6,4.17-2.57,4.17-4.8c0-2.93-2.35-4.98-5.7-4.98c-1.98,0-3.12-0.87-3.12-2.39
		c0-1.32,1.4-2.39,3.12-2.39c1.72,0,3.11,1.07,3.11,2.39v0.12h2.59v-0.12C112.66,88.64,110.95,86.66,108.49,86.06z"/>
</g>
</svg>
