<?xml version="1.0" encoding="utf-8"?>
<!-- Generator: Adobe Illustrator 23.0.3, SVG Export Plug-In . SVG Version: 6.00 Build 0)  -->
<svg version="1.1" id="Layer_1" xmlns="http://www.w3.org/2000/svg" xmlns:xlink="http://www.w3.org/1999/xlink" x="0px" y="0px"
	 viewBox="0 0 105.65 112.43" style="enable-background:new 0 0 105.65 112.43;" xml:space="preserve">
<style type="text/css">
	.st0{fill:#215BAA;}
	.st1{fill:none;stroke:#215BAA;stroke-width:4.7505;stroke-miterlimit:10;}
	.st2{fill:none;stroke:#215BAA;stroke-width:4.7505;stroke-miterlimit:10;stroke-dasharray:4.7505,4.7505;}
	.st3{fill:#4E4E4E;}
	.st4{fill:#273133;}
	.st5{fill:#FFFFFF;}
	.st6{fill:none;stroke:#515151;stroke-width:4.4595;stroke-linejoin:round;stroke-miterlimit:10;}
	.st7{fill:none;stroke:#515151;stroke-width:4.4595;stroke-miterlimit:10;}
	.st8{fill:none;stroke:#515151;stroke-width:2;stroke-miterlimit:10;}
	.st9{fill:none;stroke:#515151;stroke-width:6.0547;stroke-miterlimit:10;}
	.st10{fill:#255CAA;}
	.st11{fill:none;stroke:#215BAA;stroke-width:5;stroke-miterlimit:10;}
	.st12{fill:none;stroke:#215BAA;stroke-width:4.4922;stroke-miterlimit:10;}
</style>
<g>
	<polygon class="st0" points="0,0 0,84.3 19.16,84.3 19.16,80.05 4.25,80.05 4.25,4.25 101.39,4.25 101.39,80.05 86.49,80.05 
		86.49,84.3 105.65,84.3 105.65,0 	"/>
	<rect x="31.91" y="18.68" class="st0" width="42.48" height="4.25"/>
	<rect x="39.92" y="30.34" class="st0" width="26.47" height="4.25"/>
	<path class="st0" d="M78.42,59.32c-5.15,0-9.33-4.19-9.33-9.33c0-1.08-0.88-1.95-1.95-1.95H38.51c-1.08,0-1.95,0.88-1.95,1.95
		c0,5.14-4.19,9.33-9.33,9.33c-1.07,0-1.95,0.88-1.95,1.95c0,0.08-0.04,13.2,0,24.15c0.02,6.66,4.59,13.23,13.59,19.53
		c5.62,3.93,12.9,7.47,13.97,7.48c0.08,0,0.37-0.01,0.74-0.15c1.09-0.45,26.75-11.3,26.8-26.86c0.04-11.1,0-24.08,0-24.15
		C80.37,60.2,79.49,59.32,78.42,59.32z M40.31,52.03l0.01-0.08h25l0.01,0.08c0.87,5.63,5.42,10.17,11.05,11.05l0.08,0.01l0,0.08
		c0,2.05,0.03,12.73,0,22.24c-0.04,11.67-19.68,21.14-23.61,22.92l-0.04,0.02l-0.04-0.02c-3.93-1.76-23.55-11.16-23.59-22.92
		c-0.03-8.1-0.01-17.41,0-22.24l0-0.08l0.08-0.01C34.89,62.2,39.44,57.66,40.31,52.03z"/>
	<path class="st0" d="M34.24,68.6c-0.01,6.54,0,12.28,0.01,17.05c0.01,3,3.23,7.06,8.83,11.13c3.06,2.22,6.18,3.97,8.25,5.04
		c0.28,0.15,0.6,0.22,0.92,0.22s0.64-0.08,0.92-0.23c3.07-1.59,6.07-3.47,8.69-5.43c0.43-0.32,0.71-0.79,0.78-1.32
		c0.08-0.53-0.06-1.06-0.38-1.48c-0.38-0.51-0.97-0.8-1.6-0.8c-0.43,0-0.85,0.14-1.2,0.4c-2.16,1.62-4.64,3.19-7.17,4.57l-0.05,0.03
		l-0.05-0.03c-2.48-1.34-4.76-2.76-6.77-4.21c-5.95-4.32-7.18-7.33-7.18-7.9c-0.01-4.46-0.02-9.78-0.01-15.81l0-0.06l0.05-0.03
		c3.3-2,6.11-4.8,8.11-8.1l0.03-0.05h12.79c1.1,0,2-0.9,2-2s-0.9-2-2-2H45.27c-0.74,0-1.41,0.4-1.76,1.06
		c-1.87,3.5-4.71,6.33-8.21,8.2C34.64,67.18,34.24,67.86,34.24,68.6z"/>
</g>
</svg>
