<?xml version="1.0" encoding="utf-8"?>
<!-- Generator: Adobe Illustrator 23.0.3, SVG Export Plug-In . SVG Version: 6.00 Build 0)  -->
<svg version="1.1" id="Layer_1" xmlns="http://www.w3.org/2000/svg" xmlns:xlink="http://www.w3.org/1999/xlink" x="0px" y="0px"
	 viewBox="0 0 105.42 105.42" style="enable-background:new 0 0 105.42 105.42;" xml:space="preserve">
<style type="text/css">
	.st0{fill:#215BAA;}
	.st1{fill:none;stroke:#215BAA;stroke-width:4.7505;stroke-miterlimit:10;}
	.st2{fill:none;stroke:#215BAA;stroke-width:4.7505;stroke-miterlimit:10;stroke-dasharray:4.7505,4.7505;}
	.st3{fill:#4E4E4E;}
	.st4{fill:#273133;}
	.st5{fill:#FFFFFF;}
	.st6{fill:none;stroke:#515151;stroke-width:4.4595;stroke-linejoin:round;stroke-miterlimit:10;}
	.st7{fill:none;stroke:#515151;stroke-width:4.4595;stroke-miterlimit:10;}
	.st8{fill:none;stroke:#515151;stroke-width:2;stroke-miterlimit:10;}
	.st9{fill:none;stroke:#515151;stroke-width:6.0547;stroke-miterlimit:10;}
	.st10{fill:#255CAA;}
	.st11{fill:none;stroke:#215BAA;stroke-width:5;stroke-miterlimit:10;}
	.st12{fill:none;stroke:#215BAA;stroke-width:4.4922;stroke-miterlimit:10;}
</style>
<path class="st0" d="M9.99,105.42c-1.09,0-1.98-0.89-1.98-1.98V57.36H7.32C3.28,57.36,0,54.07,0,50.04V34.02
	c0-4.04,3.28-7.32,7.32-7.32h23.03l-2.8-1.3c-5.88-3.1-8.86-7.38-8.86-12.74C18.69,5.68,24.37,0,31.35,0
	c10.99,0,17.33,10.66,20.71,19.6l0.65,1.71l0.65-1.71C56.74,10.66,63.08,0,74.07,0c6.98,0,12.66,5.68,12.66,12.66
	c0,5.36-2.98,9.64-8.86,12.74l-3.49,1.3H98.1c4.04,0,7.32,3.28,7.32,7.32v16.02c0,4.04-3.28,7.32-7.32,7.32h-0.69v46.08
	c0,1.09-0.89,1.98-1.98,1.98H9.99z M65.37,101.46h28.08v-44.1H65.37V101.46z M44.01,101.46h17.4v-70.8h-17.4V101.46z M11.97,101.46
	h28.08v-44.1H11.97V101.46z M65.37,53.4H98.1c1.85,0,3.36-1.51,3.36-3.36V34.02c0-1.85-1.51-3.36-3.36-3.36H65.37V53.4z M7.32,30.66
	c-1.85,0-3.36,1.51-3.36,3.36v16.02c0,1.85,1.51,3.36,3.36,3.36h32.73V30.66H7.32z M74.07,3.96C63,3.96,57.41,19.13,55.52,25.65
	l-0.27,0.95l0.99-0.07c7.98-0.57,26.53-3.06,26.53-13.87C82.77,7.86,78.86,3.96,74.07,3.96z M31.35,3.96c-4.8,0-8.7,3.9-8.7,8.7
	c0,10.81,18.55,13.3,26.53,13.87l0.99,0.07l-0.27-0.95C48.01,19.13,42.42,3.96,31.35,3.96z"/>
</svg>
