<svg id="Layer_1" data-name="Layer 1" xmlns="http://www.w3.org/2000/svg" viewBox="0 0 575.34 536.03"><defs><style>.cls-1{fill:#fff}</style></defs><path class="cls-1" d="M.19 138.33h143.07v263.72H.19z"/><path class="cls-1" d="M407.07 364.41a308.8 308.8 0 0 1 3.93 37.06h158.53C569.2 179.79 387.54.18 163.49.18q-10.32 0-20.49.51v137.73c132.71 3.42 241.44 90.1 264.1 226M106.58 420.99h27.1v110.95h-27.1zM337.32 420.99h27.11v110.95h-27.11zM295.62 420.99v42.06h-34.35v-42.06h-27.1v110.95h27.1v-42.05h34.35v42.05h27.11V420.99h-27.11zM440.55 420.99v42.06h-34.34v-42.06H379.1v110.95h27.11v-42.05h34.34v42.05h27.11V420.99h-27.11zM65.09 420.99v62.3l-37.27-62.1v-.2H.7v110.95h27.12V469.7l37.27 62.11v.13H92.2V420.99H65.09zM201.43 508c-16.36 0-29.62-13.88-29.62-31s13.26-31 29.62-31a28.64 28.64 0 0 1 18.76 7v-32.16a59.2 59.2 0 1 0 0 111.65v-31.57a28.72 28.72 0 0 1-18.76 7M539.14 421l-27.7.24-36.77 110.62h29.71l5.29-16.44h31l6.8 16.44h27.7zM517 490.51l8-25.68 8.06 25.68z"/></svg>
