<svg id="Layer_1" data-name="Layer 1" xmlns="http://www.w3.org/2000/svg" viewBox="0 0 576 641.86"><defs><style>.cls-1{fill:#fff;}</style></defs><title>Nichiha_Logo_NoTagline_White</title><path class="cls-1" d="M.15,585.75v-11H6v-6.48c0-11.78,4.91-15,16-15h5.72v12a14.57,14.57,0,0,0-3.38-.67c-2.26,0-3.16,1-3.16,2.54v7.62h6.54v11H21.19V640H6V585.75H.15"/><path class="cls-1" d="M38.83,574.76H54V640H38.83Zm0-21.53H54v13.63H38.83Z"/><path class="cls-1" d="M79.76,599c-.24-5.21,0-14.48,7.13-14.48s6.41,6.15,6.9,12.63v21.74c-.36,6.25-2,11.23-6.68,11.23-4.89,0-7.35-4.06-7.35-11.58V599M64.58,640H79.07v-7h.23c3.38,6.48,7.59,8.35,13.91,8.67,12.84,0,15.41-11.53,15.77-22V596.16c-.36-17.93-6-22.89-15.77-23.14-6.44-.11-10.53,2.1-13.55,8.32H79.4c.12-3.11.36-5.2.36-7.31v-20.8H64.58V640"/><path class="cls-1" d="M132.38,598.94v-2.69c0-5.86-.34-11.69,7.26-11.69,6.08,0,7.82,2.12,7.94,8.67v5.71h-15.2m-15.16,15.37c-.35,19.18,6.75,27.38,24.29,27.38,15.53,0,21.62-9.23,21-23.8H147.35c.23,8.22-1.41,12.27-7,12.27-4.55,0-7.84-1.65-8-10.18v-9.49h30.38v-8.82c0-17.8-2.2-28.66-23.34-28.66-15,0-22.9,8.79-22.2,24.18v17.12"/><path class="cls-1" d="M185,586.32h.22c1.87-4.78,3.71-7.42,5.93-9.24a13.45,13.45,0,0,1,9.48-3.51V591.4c-8.4-.8-14.83,1.3-15.06,10.88V640H170.39V574.76H185v11.56"/><path class="cls-1" d="M275.62,597.42v-7.29c-.22-3.58-2-5.57-5.25-5.57-5.84,0-5.84,6.61-5.71,14.59v15.37c-.36,12.71,1.15,15.05,5.71,15.64,4.7-.15,4.79-4.39,5.25-9.63v-6H290.8v6c0,13.67-5.72,21.16-20.77,21.16-13.45,0-21.16-7.05-20.57-24.39V596.16c-.13-18.29,9-23.15,20.57-23.15,15.29,0,20.91,9.5,20.77,19.19v5.22H275.62"/><path class="cls-1" d="M314.37,598.94v-2.69c0-5.9-.36-11.69,7.22-11.69,6.08,0,7.84,2.12,7.93,8.67v5.71H314.37m-15.22,15.35c-.34,19.2,6.8,27.4,24.32,27.4,15.54,0,21.6-9.23,21-23.8H329.29c.23,8.22-1.39,12.27-7,12.27-4.53,0-7.81-1.65-7.91-10.2v-9.47h30.36v-8.82c0-17.8-2.22-28.66-23.37-28.66-14.94,0-22.89,8.8-22.21,24.18v17.1"/><path class="cls-1" d="M371.19,581.46h.24c3.38-7.2,9.58-8.19,14.47-8.45,5.62-.1,13.09,2.32,14.13,8.45,3.06-5.69,7.84-8.45,15.33-8.45,11.18,0,16.1,6.94,16.1,13.89V640H416.29V595.88c0-5.84-.59-11.64-7.26-11.32s-7.7,4.86-7.7,12.52V640h-15.2V595.09c0-5.74-.44-10.65-7.48-10.53s-7.46,5.33-7.46,12.52V640H356V574.76h15.19v6.7"/><path class="cls-1" d="M455.75,598.94v-2.69c0-5.9-.33-11.69,7.22-11.69,6.12,0,7.87,2.12,8,8.67v5.71h-15.2m-15.19,15.35c-.34,19.2,6.81,27.4,24.32,27.4,15.51,0,21.6-9.23,21-23.8h-15.2c.24,8.22-1.4,12.27-7,12.27-4.55,0-7.85-1.65-8-10.2v-9.47h30.38v-8.82c0-17.8-2.22-28.66-23.37-28.66-15,0-22.88,8.8-22.2,24.18v17.1"/><path class="cls-1" d="M510,581.46h.21c3.38-7.53,10.18-8.45,13.67-8.45,8.66,0,15.66,5,15.19,16.66V640H523.86v-43.5c0-6.34-.7-10.5-6.41-10.73s-7.7,5.07-7.47,12V640H494.79V574.76H510v6.7"/><path class="cls-1" d="M575.2,640.21c-9,1-21.61,1.85-21.61-10.31V585.74H547.4v-11h6.06V556.82H568.8v17.94h6.4v11h-6.4V626.2c.33,2.78,4.51,2.43,6.4,2.2v11.81"/><rect class="cls-1" x="0.51" y="138.42" width="143.17" height="263.89"/><path class="cls-1" d="M407.66,364.65a311,311,0,0,1,3.89,37.08H570.23C569.9,179.9,388.12.17,163.92.17c-6.88,0-13.74.17-20.53.51V138.51c132.8,3.42,241.59,90.16,264.27,226.14"/><rect class="cls-1" x="106.97" y="421.26" width="27.12" height="111.02"/><rect class="cls-1" x="337.87" y="421.26" width="27.13" height="111.02"/><polygon class="cls-1" points="296.14 421.26 296.14 463.34 261.77 463.34 261.77 421.26 234.65 421.26 234.65 532.29 261.77 532.29 261.77 490.2 296.14 490.2 296.14 532.29 323.27 532.29 323.27 421.26 296.14 421.26"/><polygon class="cls-1" points="441.16 421.26 441.16 463.34 406.8 463.34 406.8 421.26 379.67 421.26 379.67 532.29 406.8 532.29 406.8 490.2 441.16 490.2 441.16 532.29 468.29 532.29 468.29 421.26 441.16 421.26"/><polygon class="cls-1" points="65.45 421.26 65.45 483.6 28.16 421.46 28.16 421.26 1.02 421.26 1.02 532.29 28.16 532.29 28.16 470 65.45 532.15 65.45 532.29 92.58 532.29 92.58 421.26 65.45 421.26"/><path class="cls-1" d="M201.88,508.29c-16.36,0-29.63-13.89-29.63-31s13.27-31,29.63-31a28.68,28.68,0,0,1,18.78,7V421.11a59.23,59.23,0,1,0,0,111.73v-31.6a28.71,28.71,0,0,1-18.78,7.05"/><path class="cls-1" d="M539.81,421.23l-27.71.24L475.3,532.2H505l5.29-16.45h31l6.81,16.45h27.72Zm-22.18,69.59,8.07-25.69,8.06,25.69Z"/></svg>